<svg width="32" height="32" viewBox="0 0 32 32" fill="none" xmlns="http://www.w3.org/2000/svg">
<path d="M17.3639 13.9096H15.4597V8.99461H11.3201V7.09034C11.3201 5.93587 10.3843 5 9.22981 5C8.07535 5 7.13947 5.93587 7.13947 7.09034V8.99461H3V23.0053H7.13952V21.1011C7.13952 19.9466 8.0754 19.0107 9.22986 19.0107C10.3843 19.0107 11.3202 19.9466 11.3202 21.1011V23.0053H15.4597V18.0903H17.364C18.5185 18.0903 19.4543 17.1544 19.4543 16C19.4543 14.8455 18.5184 13.9096 17.3639 13.9096Z" fill="#535AF7"/>
<circle cx="25.4385" cy="17" r="4" fill="#535AF7"/>
<g filter="url(#filter0_bi_79_312)">
<path d="M25.3309 8.99461V7.09034C25.3309 5.93587 24.3951 5 23.2406 5C22.0861 5 21.1503 5.93587 21.1503 7.09034V8.99461H17.0107V12.3586H17.3639C19.3718 12.3586 21.0053 13.9921 21.0053 16C21.0053 18.0078 19.3718 19.6414 17.3639 19.6414H17.0107V23.0053H21.1503V24.9096C21.1503 26.0641 22.0861 26.9999 23.2406 26.9999C24.3951 26.9999 25.3309 26.0641 25.3309 24.9096V23.0053H29.4705V8.99461H25.3309Z" fill="black" fill-opacity="0.02"/>
</g>
<defs>
<filter id="filter0_bi_79_312" x="7.01074" y="-5" width="32.4597" height="42" filterUnits="userSpaceOnUse" color-interpolation-filters="sRGB">
<feFlood flood-opacity="0" result="BackgroundImageFix"/>
<feGaussianBlur in="BackgroundImage" stdDeviation="5"/>
<feComposite in2="SourceAlpha" operator="in" result="effect1_backgroundBlur_79_312"/>
<feBlend mode="normal" in="SourceGraphic" in2="effect1_backgroundBlur_79_312" result="shape"/>
<feColorMatrix in="SourceAlpha" type="matrix" values="0 0 0 0 0 0 0 0 0 0 0 0 0 0 0 0 0 0 127 0" result="hardAlpha"/>
<feOffset/>
<feGaussianBlur stdDeviation="5"/>
<feComposite in2="hardAlpha" operator="arithmetic" k2="-1" k3="1"/>
<feColorMatrix type="matrix" values="0 0 0 0 0 0 0 0 0 0 0 0 0 0 0 0 0 0 0.1 0"/>
<feBlend mode="normal" in2="shape" result="effect2_innerShadow_79_312"/>
</filter>
</defs>
</svg>
