<svg width="32" height="32" viewBox="0 0 32 32" fill="none" xmlns="http://www.w3.org/2000/svg">
<path d="M5 14C5 12.8954 6.23122 12 7.75 12H24.25C25.7688 12 27 12.8954 27 14V21C27 22.1046 25.7688 23 24.25 23H7.75C6.23122 23 5 22.1046 5 21V14Z" fill="#535AF7"/>
<g filter="url(#filter0_bi_79_336)">
<path d="M3.00005 7.66667C3.00005 6.19391 4.19395 5 5.66671 5H27C28.4728 5 29.6667 6.19391 29.6667 7.66667V25C29.6667 26.4728 28.4728 27.6667 27 27.6667H5.66671C4.19395 27.6667 3.00005 26.4728 3.00005 25V7.66667Z" fill="black" fill-opacity="0.01"/>
</g>
<path d="M7 19.8996H8.29068V17.0833H11.3173V16.0792H8.29068V14.0376H11.6024V13H7V19.8996Z" fill="white"/>
<path d="M12.4179 19.8996H13.6635V16.959C13.6635 16.2083 14.0887 15.7828 14.7941 15.7828C15.0042 15.7828 15.1943 15.8115 15.2994 15.8497V14.7739C15.2043 14.75 15.0592 14.7261 14.9042 14.7261C14.2938 14.7261 13.8536 15.0943 13.6885 15.7063H13.6635V14.8313H12.4179V19.8996Z" fill="white"/>
<path d="M18.0708 20C19.4566 20 20.237 19.2158 20.4021 18.4365L20.4171 18.3839H19.2514L19.2414 18.4173C19.1214 18.7568 18.7162 19.0724 18.0958 19.0724C17.2854 19.0724 16.7751 18.5464 16.7551 17.6571H20.4671V17.2746C20.4671 15.7445 19.5266 14.7261 18.0108 14.7261C16.495 14.7261 15.5195 15.778 15.5195 17.375V17.3798C15.5195 18.9911 16.48 20 18.0708 20ZM18.0258 15.6585C18.6861 15.6585 19.1664 16.0601 19.2565 16.8634H16.7701C16.8702 16.084 17.3655 15.6585 18.0258 15.6585Z" fill="white"/>
<path d="M23.6037 20C24.9895 20 25.7699 19.2158 25.935 18.4365L25.95 18.3839H24.7844L24.7744 18.4173C24.6543 18.7568 24.2491 19.0724 23.6288 19.0724C22.8183 19.0724 22.3081 18.5464 22.288 17.6571H26V17.2746C26 15.7445 25.0595 14.7261 23.5437 14.7261C22.0279 14.7261 21.0524 15.778 21.0524 17.375V17.3798C21.0524 18.9911 22.0129 20 23.6037 20ZM23.5587 15.6585C24.2191 15.6585 24.6993 16.0601 24.7894 16.8634H22.3031C22.4031 16.084 22.8984 15.6585 23.5587 15.6585Z" fill="white"/>
<defs>
<filter id="filter0_bi_79_336" x="-2.99995" y="-1" width="38.6667" height="34.6667" filterUnits="userSpaceOnUse" color-interpolation-filters="sRGB">
<feFlood flood-opacity="0" result="BackgroundImageFix"/>
<feGaussianBlur in="BackgroundImage" stdDeviation="3"/>
<feComposite in2="SourceAlpha" operator="in" result="effect1_backgroundBlur_79_336"/>
<feBlend mode="normal" in="SourceGraphic" in2="effect1_backgroundBlur_79_336" result="shape"/>
<feColorMatrix in="SourceAlpha" type="matrix" values="0 0 0 0 0 0 0 0 0 0 0 0 0 0 0 0 0 0 127 0" result="hardAlpha"/>
<feOffset/>
<feGaussianBlur stdDeviation="5"/>
<feComposite in2="hardAlpha" operator="arithmetic" k2="-1" k3="1"/>
<feColorMatrix type="matrix" values="0 0 0 0 0 0 0 0 0 0 0 0 0 0 0 0 0 0 0.1 0"/>
<feBlend mode="normal" in2="shape" result="effect2_innerShadow_79_336"/>
</filter>
</defs>
</svg>
