<svg width="141" height="35" viewBox="0 0 141 35" fill="none" xmlns="http://www.w3.org/2000/svg">
<path d="M2.91604 14.5835L0 17.4995L2.91604 20.4156L5.83209 17.4995L2.91604 14.5835Z" fill="#5555FF"/>
<path d="M6.56192 10.9375L3.64587 13.8535L6.56192 16.7696L9.47796 13.8535L6.56192 10.9375Z" fill="#5555FF"/>
<path d="M10.208 7.29147L7.29199 10.2075L10.208 13.1236L13.1241 10.2075L10.208 7.29147Z" fill="#5555FF"/>
<path d="M17.4998 -2.90078e-05L14.5837 2.91602L17.4998 5.83206L20.4158 2.91601L17.4998 -2.90078e-05Z" fill="#5555FF"/>
<path d="M13.8539 3.64597L10.9379 6.56201L13.8539 9.47805L16.77 6.56201L13.8539 3.64597Z" fill="#5555FF"/>
<path d="M29.1698 17.5019L32.0858 20.418L35.0019 17.5019L32.0858 14.5859L29.1698 17.5019Z" fill="#5555FF"/>
<path d="M25.5239 13.8559L28.4399 16.772L31.356 13.8559L28.4399 10.9399L25.5239 13.8559Z" fill="#5555FF"/>
<path d="M21.878 10.2099L24.7941 13.126L27.7101 10.2099L24.7941 7.29389L21.878 10.2099Z" fill="#5555FF"/>
<path d="M18.2319 6.56394L21.1479 9.47998L24.064 6.56394L21.1479 3.64789L18.2319 6.56394Z" fill="#5555FF"/>
<path d="M17.5013 7.5838L14.7301 10.355L17.5013 13.1262L20.2725 10.355L17.5013 7.5838Z" fill="#5555FF"/>
<path d="M13.8569 11.5163L11.2306 14.1426L13.8569 16.7689L16.4832 14.1426L13.8569 11.5163Z" fill="#5555FF"/>
<path d="M21.1487 11.5163L18.5223 14.1426L21.1487 16.7689L23.775 14.1426L21.1487 11.5163Z" fill="#5555FF"/>
<path d="M10.2096 15.4578L7.73083 17.9365L10.2096 20.4153L12.6884 17.9365L10.2096 15.4578Z" fill="#5555FF"/>
<path d="M17.5016 15.4577L15.0228 17.9365L17.5016 20.4153L19.9804 17.9365L17.5016 15.4577Z" fill="#5555FF"/>
<path d="M24.7932 15.4577L22.3145 17.9365L24.7932 20.4153L27.272 17.9365L24.7932 15.4577Z" fill="#5555FF"/>
<path d="M6.56523 19.3951L4.23132 21.729L6.56523 24.0629L8.89914 21.729L6.56523 19.3951Z" fill="#5555FF"/>
<path d="M13.857 19.3961L11.5231 21.73L13.857 24.0639L16.1909 21.73L13.857 19.3961Z" fill="#5555FF"/>
<path d="M21.1487 19.3961L18.8148 21.73L21.1487 24.0639L23.4826 21.73L21.1487 19.3961Z" fill="#5555FF"/>
<path d="M28.4407 19.3961L26.1068 21.73L28.4407 24.0639L30.7746 21.73L28.4407 19.3961Z" fill="#5555FF"/>
<path d="M10.2087 23.6255L8.16724 25.667L10.2087 27.7085L12.2502 25.667L10.2087 23.6255Z" fill="#5555FF"/>
<path d="M17.5005 23.6265L15.459 25.668L17.5005 27.7095L19.542 25.668L17.5005 23.6265Z" fill="#5555FF"/>
<path d="M24.7922 23.6265L22.7507 25.668L24.7922 27.7095L26.8337 25.668L24.7922 23.6265Z" fill="#5555FF"/>
<path d="M13.8548 27.8535L12.1057 29.6025L13.8548 31.3516L15.6039 29.6025L13.8548 27.8535Z" fill="#5555FF"/>
<path d="M21.1467 27.8539L19.3976 29.603L21.1467 31.3521L22.8958 29.603L21.1467 27.8539Z" fill="#5555FF"/>
<path d="M17.501 32.0812L16.0416 33.5405L17.501 34.9999L18.9603 33.5405L17.501 32.0812Z" fill="#5555FF"/>
<path d="M46.6263 21.0213V26.4512H43.7524V8.77497C46.4986 8.77497 49.3223 8.74805 52.0684 8.74805C60.6399 8.74805 60.6672 20.9675 52.0684 21.0168H46.6263V21.0213ZM46.6263 18.4231H52.0684C56.8172 18.4231 56.7898 11.3553 52.0684 11.3553H46.6263V18.4231Z" fill="#161719"/>
<path d="M94.4648 21.1957C94.6974 23.0894 96.2849 24.328 98.5977 24.328C99.8795 24.328 101.499 23.8478 102.265 22.9907L103.985 24.6331C102.676 26.0467 100.495 26.7557 98.5429 26.7557C94.3872 26.7557 91.7186 24.1575 91.7186 20.1681C91.7186 16.3807 94.4146 13.6792 98.365 13.6792C102.448 13.6792 105.217 16.1294 104.729 21.2047H94.4648V21.1957ZM102.188 19.0014C102.033 17.0313 100.573 15.9992 98.4426 15.9992C96.5175 15.9992 94.9255 17.0358 94.515 19.0014H102.188Z" fill="#161719"/>
<path d="M107.115 26.452V8.80273H119.819V11.5536H109.988V16.9296H118.382V19.5547H109.988V26.4475H107.115V26.452Z" fill="#161719"/>
<path d="M137.185 14.0029L133.736 23.0138L130.27 14.0029H127.441L132.327 26.6935L131.998 27.5551L130.21 32.2311H133.034L133.746 30.3733L133.787 30.2656L134.827 27.5506L135.155 26.689L140.009 14.0029H137.185Z" fill="#161719"/>
<path d="M125.101 8.78906H122.227V26.4473H125.101V8.78906Z" fill="#161719"/>
<path d="M71.0405 14.0032V15.9643C70.2422 14.5552 68.527 13.7295 66.7343 13.7295C63.0895 13.7295 60.1882 16.054 60.1882 20.2184C60.1882 24.4591 62.9846 26.806 66.6795 26.7836C68.2396 26.7836 70.1875 26.0297 71.036 24.4456V26.456H73.9098V14.0032H71.0405ZM66.9395 24.3558C64.6815 24.3558 62.834 22.7897 62.834 20.2139C62.834 17.665 64.6815 16.0989 66.9395 16.0989C72.4045 16.0989 72.4045 24.3558 66.9395 24.3558Z" fill="#161719"/>
<path d="M89.8439 20.2586C89.8439 18.6655 89.3512 17.2026 88.0694 15.8833L90.0355 13.9492L88.0055 11.9478L85.7794 14.1376C84.9446 13.7742 83.9274 13.653 83.0972 13.653C79.6576 13.653 76.2409 15.8608 76.2455 20.2541C76.2455 23.7184 77.8968 26.4423 82.6045 26.5994C85.6882 26.7026 87.0795 27.8155 87.0795 29.6509C87.0795 31.5132 84.9994 32.3389 83.0515 32.3389C80.9486 32.3119 78.946 31.2215 79.019 29.1707H76.3778C76.2774 32.819 78.9186 34.9999 83.0515 34.9999C86.4363 34.9999 89.8257 33.2139 89.8257 29.6509C89.8257 28.0802 89.0821 26.2673 86.4911 25.3653C88.74 24.4678 89.8439 22.5786 89.8439 20.2586ZM83.0972 24.2794C82.0708 24.2794 81.1219 23.9966 80.3875 23.4447C79.6166 22.8658 79.0874 21.9952 78.9506 20.8599C78.9278 20.6669 78.9141 20.4695 78.9141 20.2586C78.9141 17.5167 80.944 16.2109 83.0972 16.2109C83.2796 16.2109 83.4621 16.2198 83.64 16.2423C84.6938 16.3589 85.6517 16.8346 86.3086 17.6199C86.8651 18.2841 87.2072 19.1726 87.2072 20.2586C87.2027 22.6324 85.4327 24.2794 83.0972 24.2794Z" fill="#161719"/>
</svg>
