<svg width="32" height="32" viewBox="0 0 32 32" fill="none" xmlns="http://www.w3.org/2000/svg">
<path d="M25.3333 16.0001C25.3333 21.1547 21.1547 25.3334 16 25.3334C10.8453 25.3334 6.66667 21.1547 6.66667 16.0001C6.66667 10.8454 10.8453 6.66675 16 6.66675C21.1547 6.66675 25.3333 10.8454 25.3333 16.0001Z" fill="#535AF7"/>
<g filter="url(#filter0_bi_79_345)">
<path d="M29.3333 16.0001C29.3333 23.3639 23.3638 29.3334 16 29.3334C8.63621 29.3334 2.66667 23.3639 2.66667 16.0001C2.66667 8.63628 8.63621 2.66675 16 2.66675C23.3638 2.66675 29.3333 8.63628 29.3333 16.0001Z" fill="black" fill-opacity="0.02"/>
</g>
<path d="M23.6872 8.28526C23.946 8.53972 23.9926 8.99872 23.6872 9.28353L18.4742 14.4089C18.7268 14.8292 18.8718 15.3196 18.8718 15.8432C18.8718 17.4026 17.5861 18.6667 16 18.6667C14.414 18.6667 13.1282 17.4026 13.1282 15.8432C13.1282 14.2838 14.414 13.0197 16 13.0197C16.5326 13.0197 17.0313 13.1622 17.4589 13.4106L22.6718 8.28526C22.9522 8.0096 23.4068 8.0096 23.6872 8.28526ZM16 6.66675C17.374 6.66675 18.7073 6.95931 19.9274 7.51647C20.287 7.68069 20.4431 8.10044 20.2761 8.45402C20.1091 8.80759 19.6821 8.96109 19.3225 8.79687C18.291 8.3258 17.164 8.07851 16 8.07851C11.6384 8.07851 8.10257 11.5549 8.10257 15.8432C8.10257 16.2331 7.78113 16.5491 7.38462 16.5491C6.98811 16.5491 6.66667 16.2331 6.66667 15.8432C6.66667 10.7752 10.8453 6.66675 16 6.66675ZM24.4845 12.0146C25.0412 13.2054 25.3333 14.5047 25.3333 15.8432C25.3333 16.2331 25.0119 16.5491 24.6154 16.5491C24.2189 16.5491 23.8974 16.2331 23.8974 15.8432C23.8974 14.7093 23.6505 13.611 23.1798 12.6042C23.0142 12.25 23.172 11.8308 23.5323 11.668C23.8926 11.5052 24.3189 11.6604 24.4845 12.0146Z" fill="white"/>
<defs>
<filter id="filter0_bi_79_345" x="-4.33333" y="-4.33325" width="40.6667" height="40.6667" filterUnits="userSpaceOnUse" color-interpolation-filters="sRGB">
<feFlood flood-opacity="0" result="BackgroundImageFix"/>
<feGaussianBlur in="BackgroundImage" stdDeviation="3.5"/>
<feComposite in2="SourceAlpha" operator="in" result="effect1_backgroundBlur_79_345"/>
<feBlend mode="normal" in="SourceGraphic" in2="effect1_backgroundBlur_79_345" result="shape"/>
<feColorMatrix in="SourceAlpha" type="matrix" values="0 0 0 0 0 0 0 0 0 0 0 0 0 0 0 0 0 0 127 0" result="hardAlpha"/>
<feOffset/>
<feGaussianBlur stdDeviation="5"/>
<feComposite in2="hardAlpha" operator="arithmetic" k2="-1" k3="1"/>
<feColorMatrix type="matrix" values="0 0 0 0 0 0 0 0 0 0 0 0 0 0 0 0 0 0 0.1 0"/>
<feBlend mode="normal" in2="shape" result="effect2_innerShadow_79_345"/>
</filter>
</defs>
</svg>
